<svg xmlns="http://www.w3.org/2000/svg" width="1536" height="1024" viewBox="0 0 1536 1024" role="img" aria-label="Euredice’s Kitchen Amsterdam logo">
  <path fill="#cb365b" d="M 81 356 L 81 685 L 83 687 L 92 687 L 110 691 L 130 700 L 139 706 L 151 717 L 159 728 L 166 745 L 166 751 L 169 754 L 196 755 L 197 756 L 218 757 L 227 759 L 238 759 L 246 761 L 270 763 L 277 765 L 284 765 L 285 766 L 312 769 L 332 773 L 339 773 L 345 775 L 352 775 L 353 776 L 391 781 L 398 783 L 405 783 L 406 784 L 419 785 L 432 788 L 446 789 L 452 791 L 485 795 L 491 797 L 498 797 L 504 799 L 511 799 L 531 803 L 566 807 L 573 809 L 581 809 L 588 811 L 596 811 L 603 813 L 627 815 L 635 817 L 645 817 L 653 819 L 665 819 L 674 821 L 687 821 L 688 822 L 698 822 L 699 823 L 716 823 L 717 824 L 728 824 L 729 825 L 753 825 L 754 826 L 825 825 L 826 824 L 837 824 L 838 823 L 876 821 L 884 819 L 895 819 L 896 818 L 911 817 L 919 815 L 942 813 L 949 811 L 957 811 L 964 809 L 972 809 L 979 807 L 1015 803 L 1034 799 L 1054 797 L 1055 796 L 1080 793 L 1087 791 L 1094 791 L 1114 787 L 1121 787 L 1122 786 L 1160 781 L 1167 779 L 1173 779 L 1180 777 L 1215 773 L 1235 769 L 1271 765 L 1278 763 L 1286 763 L 1287 762 L 1303 761 L 1312 759 L 1322 759 L 1331 757 L 1383 754 L 1385 752 L 1387 741 L 1394 726 L 1399 719 L 1409 709 L 1423 699 L 1425 699 L 1434 694 L 1450 689 L 1468 687 L 1470 685 L 1470 355 L 1468 354 L 1457 354 L 1439 350 L 1428 346 L 1408 335 L 1395 323 L 1386 311 L 1381 301 L 1378 289 L 1378 282 L 1376 279 L 1362 276 L 1356 276 L 1351 274 L 1345 274 L 1329 270 L 1323 270 L 1318 268 L 1313 268 L 1297 264 L 1291 264 L 1286 262 L 1270 260 L 1265 258 L 1259 258 L 1242 254 L 1236 254 L 1230 252 L 1224 252 L 1218 250 L 1212 250 L 1206 248 L 1200 248 L 1183 244 L 1165 242 L 1160 240 L 1154 240 L 1149 238 L 1143 238 L 1137 236 L 1110 232 L 1021 214 L 1017 212 L 1013 212 L 981 203 L 922 172 L 897 162 L 865 152 L 860 152 L 856 150 L 836 146 L 829 146 L 823 144 L 814 144 L 813 143 L 803 143 L 802 142 L 764 142 L 763 143 L 743 144 L 742 145 L 729 146 L 724 148 L 718 148 L 683 157 L 680 159 L 657 166 L 624 180 L 622 182 L 620 182 L 577 203 L 571 204 L 561 208 L 550 210 L 546 212 L 477 226 L 460 228 L 454 230 L 448 230 L 442 232 L 437 232 L 409 238 L 403 238 L 398 240 L 392 240 L 386 242 L 368 244 L 351 248 L 333 250 L 327 252 L 322 252 L 316 254 L 311 254 L 305 256 L 300 256 L 294 258 L 288 258 L 283 260 L 256 264 L 240 268 L 235 268 L 229 270 L 224 270 L 218 272 L 180 278 L 176 281 L 176 288 L 174 296 L 167 311 L 162 318 L 144 335 L 129 344 L 119 348 L 101 353 L 83 354 Z"/>
  <path fill="#ffffff" fill-rule="evenodd" d="M 784 805 L 784 807 L 785 808 L 801 808 L 803 806 L 803 805 Z M 747 805 L 747 806 L 749 808 L 767 808 L 768 807 L 768 805 Z M 836 804 L 835 803 L 817 804 L 817 807 L 829 807 L 830 806 L 834 806 Z M 716 803 L 716 805 L 717 806 L 725 806 L 726 807 L 734 807 L 736 805 L 735 804 L 729 804 L 728 803 Z M 864 801 L 847 802 L 846 804 L 847 805 L 857 805 L 858 804 L 863 804 L 864 803 Z M 689 801 L 689 804 L 693 804 L 694 805 L 705 805 L 707 803 L 705 803 L 704 802 L 695 802 L 694 801 Z M 661 799 L 661 800 L 663 802 L 669 802 L 670 803 L 678 803 L 679 802 L 678 800 Z M 891 799 L 890 798 L 888 798 L 887 799 L 878 799 L 877 800 L 874 800 L 874 802 L 875 803 L 877 803 L 878 802 L 887 802 L 888 801 L 890 801 Z M 901 800 L 906 800 L 907 799 L 914 799 L 917 797 L 916 796 L 907 796 L 906 797 L 900 797 Z M 633 796 L 633 798 L 635 799 L 641 799 L 642 800 L 651 800 L 652 799 L 651 797 L 644 797 L 643 796 Z M 943 793 L 942 792 L 939 792 L 938 793 L 931 793 L 930 794 L 925 794 L 925 796 L 926 797 L 929 797 L 930 796 L 937 796 L 938 795 L 941 795 Z M 606 792 L 606 794 L 607 795 L 610 795 L 611 796 L 620 796 L 622 797 L 624 795 L 623 794 L 619 794 L 618 793 L 610 793 L 609 792 Z M 969 789 L 954 790 L 952 791 L 952 793 L 967 792 L 969 790 Z M 580 789 L 580 791 L 581 792 L 586 792 L 587 793 L 596 793 L 597 792 L 597 791 L 595 790 Z M 559 786 L 559 788 L 560 789 L 564 789 L 565 790 L 570 790 L 571 789 L 570 787 Z M 996 785 L 988 785 L 987 786 L 978 787 L 978 788 L 980 790 L 981 789 L 988 789 L 989 788 L 994 788 L 996 786 Z M 534 783 L 534 785 L 536 785 L 537 786 L 542 786 L 543 787 L 549 787 L 550 786 L 550 785 L 548 784 L 544 784 L 543 783 Z M 1023 781 L 1015 781 L 1014 782 L 1005 783 L 1005 785 L 1006 786 L 1009 786 L 1010 785 L 1021 784 L 1023 782 Z M 508 778 L 508 781 L 510 782 L 515 782 L 516 783 L 524 783 L 525 782 L 525 781 L 523 780 L 510 779 Z M 1050 777 L 1036 778 L 1035 779 L 1032 779 L 1032 781 L 1033 782 L 1037 782 L 1038 781 L 1048 780 L 1050 778 Z M 481 775 L 481 777 L 483 777 L 484 778 L 490 778 L 491 779 L 498 779 L 499 778 L 496 776 L 491 776 L 490 775 Z M 1077 774 L 1076 773 L 1070 773 L 1069 774 L 1059 775 L 1059 777 L 1060 778 L 1063 778 L 1064 777 L 1070 777 L 1071 776 L 1075 776 Z M 454 771 L 455 773 L 457 774 L 461 774 L 462 775 L 468 775 L 469 776 L 472 774 L 472 773 L 469 773 L 468 772 L 463 772 L 462 771 L 457 771 L 456 770 Z M 1104 770 L 1103 769 L 1096 769 L 1095 770 L 1086 771 L 1085 773 L 1086 774 L 1090 774 L 1091 773 L 1102 772 Z M 428 767 L 428 769 L 430 769 L 431 770 L 437 770 L 438 771 L 442 771 L 443 772 L 444 772 L 446 770 L 445 769 L 442 769 L 441 768 Z M 1130 765 L 1122 765 L 1121 766 L 1116 766 L 1115 767 L 1113 767 L 1113 770 L 1121 769 L 1122 768 L 1128 768 L 1130 766 Z M 401 762 L 401 765 L 403 766 L 410 766 L 411 767 L 417 767 L 418 766 L 418 765 L 416 764 L 411 764 L 410 763 L 404 763 L 403 762 Z M 1156 761 L 1148 761 L 1147 762 L 1142 762 L 1141 763 L 1139 763 L 1139 765 L 1140 766 L 1143 766 L 1144 765 L 1148 765 L 1149 764 L 1155 764 L 1156 763 Z M 372 758 L 372 760 L 373 761 L 384 762 L 385 763 L 390 763 L 391 762 L 391 761 L 389 760 L 378 759 L 377 758 Z M 1182 757 L 1170 758 L 1169 759 L 1166 759 L 1166 761 L 1168 762 L 1169 761 L 1180 760 L 1182 758 Z M 1208 754 L 1207 753 L 1196 754 L 1195 755 L 1192 755 L 1191 757 L 1192 758 L 1202 757 L 1203 756 L 1206 756 Z M 342 754 L 343 756 L 345 756 L 346 757 L 352 757 L 353 758 L 359 758 L 360 759 L 362 757 L 358 755 L 352 755 L 351 754 L 346 754 L 345 753 L 343 753 Z M 1217 754 L 1229 753 L 1230 752 L 1233 752 L 1234 750 L 1224 750 L 1223 751 L 1217 751 Z M 315 750 L 315 751 L 318 753 L 325 753 L 326 754 L 332 754 L 333 753 L 330 751 L 325 751 L 324 750 L 319 750 L 318 749 L 316 749 Z M 1260 747 L 1259 746 L 1252 746 L 1251 747 L 1245 747 L 1244 748 L 1242 748 L 1242 749 L 1244 751 L 1245 751 L 1246 750 L 1257 749 Z M 288 746 L 288 747 L 290 749 L 296 749 L 297 750 L 305 750 L 306 749 L 306 748 L 304 747 L 298 747 L 297 746 L 291 746 L 290 745 Z M 1286 743 L 1284 742 L 1283 743 L 1275 743 L 1274 744 L 1269 744 L 1269 746 L 1270 747 L 1283 746 L 1285 745 Z M 261 742 L 261 744 L 262 745 L 267 745 L 268 746 L 276 746 L 277 747 L 279 745 L 276 743 Z M 1315 740 L 1314 739 L 1309 739 L 1308 740 L 1301 740 L 1300 741 L 1296 741 L 1296 742 L 1298 744 L 1299 743 L 1308 743 L 1309 742 L 1313 742 Z M 234 739 L 234 741 L 236 742 L 244 742 L 245 743 L 250 743 L 252 741 L 250 740 L 245 740 L 244 739 Z M 1344 737 L 1343 736 L 1340 736 L 1339 737 L 1327 737 L 1325 738 L 1325 740 L 1327 741 L 1328 740 L 1343 739 Z M 206 736 L 206 738 L 208 739 L 215 739 L 216 740 L 223 740 L 224 739 L 224 738 L 222 737 L 212 737 L 211 736 Z M 1371 729 L 1369 728 L 1368 731 L 1365 734 L 1363 734 L 1362 735 L 1355 735 L 1355 737 L 1356 738 L 1367 737 L 1370 734 L 1371 732 Z M 179 722 L 180 726 L 182 729 L 183 734 L 185 737 L 191 737 L 192 738 L 194 738 L 196 736 L 196 735 L 190 735 L 189 734 L 187 734 L 182 723 L 181 722 Z M 1386 704 L 1383 704 L 1381 706 L 1381 707 L 1378 710 L 1377 713 L 1375 715 L 1374 717 L 1374 720 L 1375 720 L 1378 717 L 1382 710 L 1385 707 Z M 164 701 L 164 703 L 175 716 L 177 714 L 176 712 L 168 703 L 168 702 Z M 948 698 L 948 731 L 950 731 L 952 727 L 952 725 L 951 724 L 951 720 L 952 719 L 952 715 L 951 714 L 951 710 L 952 709 L 951 708 L 952 707 L 953 707 L 955 709 L 955 710 L 963 721 L 968 715 L 971 709 L 974 706 L 975 707 L 975 719 L 976 720 L 975 728 L 976 729 L 976 731 L 978 731 L 979 730 L 979 698 L 975 698 L 974 699 L 974 700 L 969 706 L 966 712 L 963 715 L 958 709 L 951 698 Z M 910 698 L 906 706 L 904 713 L 901 718 L 899 725 L 897 728 L 897 731 L 899 731 L 901 729 L 902 727 L 902 724 L 904 722 L 918 722 L 920 724 L 922 730 L 923 731 L 925 731 L 926 729 L 924 726 L 922 719 L 919 714 L 919 712 L 915 704 L 915 702 L 913 698 Z M 911 705 L 913 706 L 913 708 L 915 710 L 915 712 L 917 716 L 917 718 L 916 719 L 906 719 L 905 718 L 908 712 L 908 710 Z M 851 698 L 851 701 L 850 702 L 850 704 L 851 705 L 851 731 L 864 731 L 865 730 L 869 729 L 875 723 L 877 719 L 877 709 L 875 705 L 870 700 L 866 699 L 865 698 Z M 855 701 L 864 701 L 868 703 L 873 709 L 873 713 L 874 714 L 873 715 L 873 719 L 872 721 L 867 726 L 863 728 L 855 728 L 854 727 L 854 702 Z M 805 698 L 805 731 L 807 731 L 808 730 L 808 719 L 809 718 L 815 718 L 819 723 L 823 731 L 826 731 L 827 730 L 820 719 L 820 717 L 822 715 L 823 715 L 826 711 L 826 704 L 825 702 L 820 698 Z M 808 702 L 809 701 L 818 701 L 822 704 L 823 706 L 823 709 L 818 714 L 809 714 L 808 713 Z M 761 698 L 761 731 L 780 731 L 781 730 L 781 728 L 766 728 L 765 727 L 765 717 L 766 716 L 778 716 L 779 715 L 779 713 L 766 713 L 765 712 L 765 702 L 766 701 L 779 701 L 781 699 L 781 698 Z M 715 698 L 715 701 L 724 701 L 725 702 L 725 731 L 728 731 L 729 730 L 729 702 L 730 701 L 738 701 L 739 700 L 739 698 Z M 619 698 L 619 731 L 621 731 L 622 730 L 622 708 L 623 707 L 625 708 L 625 709 L 628 712 L 628 713 L 634 721 L 638 717 L 639 714 L 645 706 L 647 707 L 647 731 L 649 731 L 650 730 L 650 698 L 646 698 L 646 699 L 641 705 L 638 711 L 634 715 L 632 713 L 624 700 L 622 698 Z M 580 698 L 578 702 L 577 707 L 575 710 L 575 712 L 569 724 L 567 731 L 570 731 L 571 730 L 572 726 L 575 722 L 589 722 L 591 724 L 593 731 L 595 731 L 596 730 L 596 727 L 592 720 L 590 713 L 587 708 L 587 706 L 584 700 L 584 698 Z M 582 704 L 584 706 L 584 708 L 586 711 L 586 713 L 588 717 L 586 719 L 577 719 L 576 718 L 576 716 L 578 713 L 580 706 Z M 680 697 L 676 699 L 674 703 L 674 709 L 676 712 L 686 717 L 688 717 L 691 721 L 691 724 L 688 727 L 684 729 L 680 728 L 675 725 L 673 726 L 673 728 L 678 731 L 682 731 L 684 732 L 685 731 L 688 731 L 690 730 L 694 726 L 695 724 L 695 720 L 690 714 L 681 711 L 678 708 L 677 705 L 678 703 L 682 700 L 686 700 L 690 703 L 691 703 L 693 701 L 693 700 L 686 697 Z M 1407 686 L 1403 686 L 1401 687 L 1392 695 L 1392 697 L 1393 698 L 1405 688 L 1406 688 Z M 144 684 L 144 686 L 156 696 L 158 696 L 159 695 L 159 694 L 152 688 L 151 688 L 146 684 Z M 1432 674 L 1431 673 L 1428 673 L 1425 675 L 1423 675 L 1415 679 L 1415 682 L 1417 682 L 1424 678 L 1426 678 L 1430 676 Z M 119 672 L 119 675 L 128 678 L 133 681 L 135 681 L 136 680 L 135 678 L 127 674 Z M 1452 662 L 1449 662 L 1449 666 L 1446 669 L 1443 669 L 1441 670 L 1441 671 L 1442 672 L 1446 672 L 1447 671 L 1449 671 L 1452 668 Z M 101 662 L 101 669 L 103 671 L 109 672 L 111 670 L 110 669 L 105 668 L 104 667 L 104 663 L 103 662 Z M 1452 633 L 1449 633 L 1449 651 L 1450 652 L 1452 650 Z M 103 633 L 101 633 L 101 651 L 102 652 L 104 649 L 104 634 Z M 101 613 L 101 624 L 103 624 L 104 623 L 104 614 L 103 613 Z M 1451 604 L 1449 605 L 1449 623 L 1450 624 L 1452 622 L 1452 605 Z M 103 588 L 101 588 L 101 604 L 104 602 L 104 589 Z M 1451 577 L 1449 578 L 1449 595 L 1450 596 L 1452 594 L 1452 578 Z M 655 565 L 653 564 L 651 565 L 648 565 L 645 569 L 646 572 L 648 574 L 651 574 L 653 573 L 657 568 Z M 103 560 L 101 560 L 101 578 L 102 578 L 104 576 L 104 561 Z M 1451 548 L 1449 549 L 1449 567 L 1451 567 L 1452 566 L 1452 549 Z M 665 542 L 660 543 L 659 545 L 659 552 L 661 554 L 665 554 L 669 549 L 669 546 L 668 544 Z M 101 532 L 101 550 L 103 550 L 104 549 L 104 532 Z M 640 527 L 636 526 L 632 528 L 612 547 L 611 547 L 606 552 L 605 552 L 593 562 L 589 564 L 586 567 L 585 567 L 574 575 L 550 588 L 549 587 L 549 585 L 554 578 L 554 576 L 558 571 L 558 569 L 560 567 L 568 551 L 570 549 L 577 535 L 577 533 L 579 529 L 574 526 L 572 526 L 569 528 L 554 528 L 553 529 L 542 530 L 541 531 L 527 535 L 525 537 L 520 539 L 518 541 L 511 545 L 511 546 L 509 548 L 508 548 L 508 549 L 505 552 L 504 555 L 502 557 L 502 559 L 500 563 L 500 567 L 502 569 L 506 567 L 508 563 L 508 561 L 510 559 L 511 556 L 514 553 L 514 552 L 524 544 L 544 535 L 552 534 L 553 533 L 558 533 L 559 532 L 567 532 L 568 533 L 565 539 L 563 541 L 560 547 L 553 557 L 551 562 L 547 567 L 542 577 L 540 579 L 540 580 L 535 584 L 532 590 L 530 592 L 529 595 L 527 597 L 525 602 L 523 604 L 522 607 L 518 612 L 517 615 L 515 617 L 505 633 L 499 640 L 498 642 L 498 646 L 500 648 L 505 648 L 511 643 L 511 642 L 514 639 L 514 638 L 518 633 L 519 630 L 525 622 L 526 619 L 534 608 L 538 600 L 541 597 L 543 597 L 545 599 L 547 599 L 552 604 L 555 610 L 557 618 L 559 621 L 559 624 L 561 627 L 561 629 L 565 637 L 565 639 L 567 641 L 568 644 L 571 647 L 571 648 L 575 652 L 576 652 L 581 656 L 589 657 L 590 656 L 593 656 L 595 655 L 599 651 L 599 650 L 590 651 L 584 648 L 582 646 L 576 636 L 576 634 L 574 631 L 574 629 L 572 626 L 571 621 L 569 618 L 569 616 L 566 611 L 565 607 L 563 605 L 562 602 L 556 596 L 555 596 L 554 594 L 556 592 L 569 586 L 580 578 L 588 574 L 590 572 L 597 568 L 600 565 L 607 561 L 614 555 L 615 555 L 627 544 L 628 544 L 636 536 L 636 535 L 641 529 Z M 1037 606 L 1033 606 L 1033 607 L 1027 613 L 1027 614 L 1011 630 L 1010 630 L 1001 637 L 995 638 L 993 636 L 992 632 L 993 631 L 995 623 L 1010 595 L 1010 593 L 1011 592 L 1011 584 L 1008 580 L 1004 578 L 995 578 L 994 579 L 992 579 L 976 589 L 966 600 L 965 598 L 973 583 L 973 581 L 970 578 L 965 578 L 963 579 L 963 580 L 961 582 L 955 594 L 955 596 L 953 598 L 951 603 L 945 609 L 945 610 L 929 625 L 928 625 L 917 633 L 913 634 L 911 636 L 909 636 L 905 638 L 902 638 L 901 639 L 895 639 L 894 638 L 892 638 L 885 632 L 885 630 L 884 629 L 884 622 L 885 621 L 885 619 L 889 616 L 898 616 L 902 614 L 908 613 L 914 610 L 916 608 L 917 608 L 927 598 L 929 594 L 929 592 L 930 591 L 930 585 L 928 581 L 923 578 L 919 578 L 918 577 L 916 577 L 915 578 L 910 578 L 909 579 L 904 580 L 893 587 L 883 597 L 881 601 L 878 604 L 875 611 L 859 627 L 858 627 L 854 631 L 853 631 L 848 635 L 844 637 L 841 637 L 840 638 L 836 635 L 836 630 L 842 616 L 844 614 L 852 598 L 854 596 L 854 594 L 856 592 L 856 590 L 858 586 L 858 584 L 856 580 L 852 578 L 844 578 L 838 581 L 836 581 L 834 583 L 830 585 L 817 597 L 816 597 L 815 599 L 805 609 L 804 607 L 806 605 L 816 589 L 828 575 L 828 574 L 831 571 L 831 570 L 834 567 L 834 566 L 840 558 L 838 558 L 836 560 L 836 561 L 827 570 L 826 569 L 826 567 L 829 561 L 831 559 L 832 556 L 836 551 L 838 546 L 841 543 L 850 528 L 850 525 L 848 523 L 844 522 L 837 528 L 830 542 L 828 544 L 823 555 L 821 557 L 814 571 L 812 573 L 810 578 L 808 580 L 807 583 L 805 585 L 804 588 L 802 590 L 801 593 L 799 595 L 796 601 L 782 616 L 781 616 L 766 629 L 756 635 L 754 635 L 751 637 L 749 637 L 745 639 L 737 639 L 733 637 L 728 631 L 728 621 L 729 620 L 730 614 L 732 611 L 732 609 L 734 607 L 737 601 L 747 590 L 748 590 L 753 586 L 757 585 L 758 584 L 765 584 L 768 587 L 765 595 L 761 600 L 761 603 L 762 604 L 767 602 L 772 598 L 772 597 L 776 592 L 776 584 L 771 579 L 765 578 L 764 577 L 762 577 L 761 578 L 755 578 L 754 579 L 751 579 L 748 581 L 746 581 L 744 583 L 738 586 L 734 590 L 733 590 L 725 599 L 717 613 L 701 629 L 700 629 L 693 635 L 685 639 L 680 639 L 676 636 L 676 634 L 675 633 L 675 627 L 676 626 L 676 623 L 678 620 L 678 618 L 689 596 L 691 594 L 693 589 L 695 587 L 696 584 L 701 577 L 704 570 L 705 569 L 723 569 L 724 568 L 731 568 L 734 565 L 732 563 L 712 563 L 711 564 L 710 563 L 710 560 L 714 555 L 715 552 L 717 550 L 720 544 L 718 540 L 714 539 L 710 541 L 707 544 L 697 560 L 693 564 L 678 564 L 677 565 L 671 565 L 669 566 L 669 569 L 670 570 L 688 570 L 689 572 L 686 576 L 683 583 L 681 585 L 679 590 L 677 592 L 671 604 L 667 608 L 667 609 L 647 629 L 646 629 L 639 635 L 637 635 L 634 637 L 629 637 L 626 634 L 626 626 L 628 623 L 628 621 L 636 605 L 638 603 L 640 598 L 642 596 L 643 593 L 645 591 L 648 585 L 648 582 L 646 580 L 644 579 L 640 579 L 638 580 L 635 584 L 633 589 L 628 596 L 624 605 L 622 607 L 618 615 L 614 619 L 614 620 L 597 637 L 597 639 L 598 640 L 600 640 L 603 637 L 604 637 L 613 627 L 614 627 L 615 628 L 615 638 L 616 640 L 620 644 L 622 644 L 623 645 L 632 645 L 637 642 L 639 642 L 642 639 L 646 637 L 665 618 L 666 619 L 666 621 L 665 622 L 665 626 L 664 627 L 664 634 L 665 635 L 665 638 L 666 640 L 672 645 L 674 645 L 675 646 L 680 646 L 681 645 L 684 645 L 691 642 L 693 640 L 696 639 L 699 636 L 700 636 L 714 623 L 715 623 L 716 624 L 716 633 L 721 641 L 729 645 L 733 645 L 734 646 L 741 646 L 742 645 L 750 644 L 753 642 L 755 642 L 759 640 L 761 638 L 768 634 L 785 619 L 786 621 L 783 627 L 781 629 L 776 640 L 776 643 L 778 645 L 782 645 L 787 641 L 796 627 L 800 623 L 800 622 L 804 618 L 804 617 L 824 597 L 825 597 L 832 590 L 835 589 L 837 587 L 841 585 L 844 585 L 846 587 L 845 588 L 845 590 L 843 592 L 841 597 L 839 599 L 837 604 L 835 606 L 826 624 L 826 627 L 825 628 L 825 639 L 830 644 L 832 645 L 840 645 L 841 644 L 846 643 L 848 641 L 854 638 L 870 623 L 871 623 L 872 624 L 872 630 L 873 631 L 873 633 L 876 638 L 879 641 L 884 644 L 886 644 L 887 645 L 891 645 L 892 646 L 895 646 L 896 645 L 902 645 L 903 644 L 906 644 L 907 643 L 912 642 L 920 638 L 926 633 L 927 633 L 931 629 L 932 629 L 938 623 L 939 623 L 941 620 L 942 620 L 943 622 L 941 624 L 934 638 L 934 642 L 936 644 L 939 645 L 944 640 L 945 637 L 950 631 L 956 621 L 960 617 L 962 613 L 970 604 L 970 603 L 980 593 L 981 593 L 987 588 L 991 586 L 998 586 L 1000 588 L 999 593 L 997 597 L 995 599 L 992 606 L 990 608 L 981 626 L 981 631 L 980 632 L 980 634 L 981 635 L 981 639 L 985 643 L 986 643 L 988 645 L 996 645 L 1005 641 L 1011 636 L 1012 636 L 1031 617 L 1031 616 L 1036 611 L 1037 609 Z M 785 619 L 786 618 L 787 619 L 786 620 Z M 964 600 L 965 599 L 966 600 L 965 601 Z M 922 586 L 922 590 L 919 595 L 908 605 L 897 610 L 894 610 L 893 611 L 890 611 L 889 610 L 889 608 L 895 598 L 900 593 L 900 592 L 905 588 L 912 584 L 920 584 Z M 826 569 L 827 571 L 825 573 L 824 571 Z M 1450 518 L 1449 519 L 1449 537 L 1451 538 L 1452 537 L 1452 519 Z M 1452 490 L 1449 490 L 1449 508 L 1450 509 L 1452 507 Z M 101 490 L 101 521 L 103 521 L 104 520 L 104 491 L 103 490 Z M 1449 460 L 1449 479 L 1451 480 L 1452 479 L 1452 461 L 1451 460 Z M 103 459 L 101 459 L 101 479 L 102 480 L 104 478 L 104 460 Z M 1451 430 L 1449 430 L 1449 449 L 1450 450 L 1452 448 L 1452 431 Z M 103 429 L 101 429 L 101 448 L 102 449 L 104 447 L 104 430 Z M 1451 400 L 1449 401 L 1449 420 L 1451 420 L 1452 419 L 1452 401 Z M 103 399 L 101 399 L 101 418 L 102 419 L 104 417 L 104 400 Z M 1091 376 L 1091 380 L 1098 381 L 1100 382 L 1103 386 L 1103 482 L 1099 487 L 1095 488 L 1094 489 L 1091 489 L 1091 493 L 1178 493 L 1179 492 L 1179 488 L 1180 487 L 1180 476 L 1181 475 L 1181 469 L 1182 468 L 1182 465 L 1181 464 L 1178 464 L 1172 474 L 1163 483 L 1161 484 L 1159 484 L 1158 485 L 1153 485 L 1152 486 L 1130 486 L 1126 483 L 1126 437 L 1127 436 L 1141 436 L 1142 437 L 1147 437 L 1153 442 L 1155 446 L 1156 451 L 1158 451 L 1160 449 L 1160 415 L 1159 414 L 1156 414 L 1153 422 L 1147 428 L 1145 428 L 1144 429 L 1127 429 L 1126 428 L 1126 384 L 1127 383 L 1152 383 L 1153 384 L 1158 384 L 1162 386 L 1167 391 L 1171 398 L 1172 402 L 1174 402 L 1175 401 L 1175 376 Z M 893 376 L 893 380 L 901 382 L 904 385 L 904 387 L 905 388 L 905 480 L 904 481 L 904 483 L 900 487 L 893 489 L 892 490 L 892 493 L 939 493 L 940 492 L 940 490 L 939 489 L 932 488 L 928 485 L 928 384 L 932 381 L 934 381 L 935 380 L 939 380 L 940 379 L 940 376 Z M 754 376 L 754 379 L 755 380 L 758 380 L 759 381 L 762 381 L 764 382 L 766 384 L 766 386 L 767 387 L 767 480 L 766 481 L 766 483 L 761 488 L 754 489 L 754 493 L 814 493 L 815 492 L 820 492 L 821 491 L 824 491 L 825 490 L 831 489 L 836 486 L 838 486 L 840 484 L 847 480 L 856 471 L 856 470 L 860 465 L 864 457 L 864 455 L 866 451 L 866 448 L 867 447 L 867 443 L 868 442 L 868 422 L 867 421 L 867 417 L 866 416 L 865 411 L 860 401 L 857 398 L 857 397 L 849 389 L 848 389 L 840 383 L 836 382 L 833 380 L 827 379 L 826 378 L 823 378 L 822 377 L 815 377 L 814 376 Z M 792 382 L 807 382 L 808 383 L 817 384 L 827 390 L 834 398 L 837 404 L 837 406 L 839 410 L 839 413 L 840 414 L 840 417 L 841 418 L 841 450 L 840 451 L 840 454 L 839 455 L 839 458 L 838 459 L 837 464 L 833 471 L 824 480 L 819 483 L 817 483 L 814 485 L 810 485 L 809 486 L 795 486 L 794 485 L 791 485 L 790 484 L 790 384 Z M 635 376 L 635 380 L 638 380 L 639 381 L 642 381 L 644 382 L 646 384 L 646 386 L 647 387 L 647 480 L 646 481 L 646 483 L 642 487 L 638 488 L 637 489 L 634 489 L 634 493 L 722 493 L 724 490 L 725 477 L 726 476 L 727 466 L 728 465 L 725 463 L 723 464 L 721 469 L 718 472 L 718 473 L 709 482 L 705 484 L 703 484 L 702 485 L 696 485 L 695 486 L 674 486 L 672 485 L 670 482 L 670 437 L 671 436 L 687 436 L 688 437 L 692 437 L 698 442 L 700 446 L 700 449 L 701 451 L 703 451 L 704 450 L 704 414 L 701 414 L 700 415 L 698 422 L 693 428 L 691 428 L 690 429 L 671 429 L 670 428 L 670 384 L 671 383 L 698 383 L 699 384 L 703 384 L 709 388 L 709 389 L 712 392 L 716 401 L 717 402 L 719 402 L 720 401 L 720 376 Z M 504 376 L 504 379 L 505 380 L 511 381 L 515 384 L 515 386 L 516 387 L 516 481 L 515 482 L 515 484 L 512 487 L 508 488 L 507 489 L 503 489 L 504 493 L 550 493 L 551 492 L 551 490 L 550 489 L 546 489 L 545 488 L 543 488 L 541 487 L 538 483 L 538 441 L 540 439 L 546 439 L 551 443 L 555 451 L 557 453 L 559 458 L 561 460 L 563 465 L 565 467 L 567 472 L 572 479 L 573 482 L 575 484 L 577 488 L 582 493 L 613 493 L 614 492 L 614 489 L 610 489 L 609 488 L 607 488 L 600 482 L 597 476 L 595 474 L 594 471 L 592 469 L 591 466 L 589 464 L 588 461 L 586 459 L 585 456 L 583 454 L 580 448 L 573 438 L 573 436 L 574 435 L 576 435 L 585 430 L 592 423 L 596 415 L 596 410 L 597 409 L 596 398 L 593 391 L 590 388 L 590 387 L 580 380 L 578 380 L 574 378 L 571 378 L 570 377 L 565 377 L 564 376 Z M 539 383 L 556 383 L 557 384 L 559 384 L 563 386 L 569 392 L 571 396 L 571 398 L 572 399 L 572 415 L 571 416 L 571 418 L 569 422 L 562 429 L 556 432 L 553 432 L 552 433 L 539 433 L 538 432 L 538 384 Z M 361 376 L 361 380 L 368 381 L 372 385 L 372 459 L 373 460 L 373 467 L 374 468 L 375 473 L 380 482 L 385 487 L 388 488 L 392 491 L 394 491 L 400 494 L 404 494 L 405 495 L 409 495 L 410 496 L 424 496 L 425 495 L 431 495 L 432 494 L 435 494 L 441 491 L 443 491 L 448 488 L 457 479 L 457 478 L 459 476 L 460 472 L 462 469 L 462 466 L 463 465 L 463 462 L 464 461 L 464 454 L 465 453 L 465 387 L 466 386 L 466 384 L 468 382 L 476 380 L 477 379 L 477 376 L 443 376 L 443 380 L 446 380 L 447 381 L 450 381 L 452 382 L 455 385 L 455 387 L 456 388 L 456 457 L 455 458 L 455 463 L 454 464 L 453 469 L 451 471 L 450 474 L 443 481 L 435 485 L 432 485 L 431 486 L 418 486 L 417 485 L 414 485 L 413 484 L 409 483 L 401 476 L 398 471 L 398 469 L 396 465 L 396 383 L 399 381 L 406 380 L 407 379 L 407 376 Z M 243 376 L 243 380 L 251 381 L 255 385 L 255 483 L 251 487 L 247 488 L 246 489 L 243 489 L 243 493 L 331 493 L 332 492 L 332 485 L 333 484 L 333 478 L 334 477 L 334 469 L 335 468 L 335 464 L 331 464 L 322 478 L 318 482 L 311 485 L 305 485 L 304 486 L 282 486 L 280 485 L 278 482 L 278 437 L 279 436 L 295 436 L 296 437 L 302 438 L 307 444 L 308 450 L 309 451 L 311 451 L 312 450 L 312 414 L 308 414 L 306 422 L 300 428 L 298 428 L 297 429 L 279 429 L 278 428 L 278 384 L 279 383 L 305 383 L 306 384 L 311 384 L 319 391 L 323 398 L 324 402 L 326 402 L 328 400 L 328 394 L 327 393 L 327 384 L 328 383 L 328 379 L 327 378 L 327 376 Z M 1058 376 L 1054 380 L 1051 380 L 1045 377 L 1039 376 L 1038 375 L 1035 375 L 1034 374 L 1014 374 L 1013 375 L 1008 375 L 1007 376 L 1004 376 L 994 381 L 992 381 L 990 383 L 986 385 L 978 392 L 978 393 L 973 399 L 971 404 L 969 406 L 969 408 L 967 411 L 967 413 L 965 417 L 965 422 L 964 423 L 964 428 L 963 429 L 963 436 L 964 437 L 964 448 L 965 449 L 966 456 L 969 462 L 969 464 L 971 466 L 971 468 L 973 470 L 975 474 L 985 484 L 986 484 L 991 488 L 995 490 L 997 490 L 1000 492 L 1005 493 L 1006 494 L 1011 494 L 1012 495 L 1016 495 L 1017 496 L 1026 496 L 1027 495 L 1032 495 L 1033 494 L 1041 493 L 1051 488 L 1059 481 L 1060 477 L 1062 474 L 1063 469 L 1064 468 L 1064 464 L 1063 463 L 1061 463 L 1055 470 L 1055 471 L 1050 476 L 1049 476 L 1045 480 L 1037 484 L 1035 484 L 1034 485 L 1030 485 L 1029 486 L 1022 486 L 1021 485 L 1017 485 L 1016 484 L 1012 483 L 1006 478 L 1005 478 L 1004 476 L 998 470 L 992 457 L 992 454 L 990 450 L 990 442 L 989 441 L 989 425 L 990 424 L 990 416 L 991 415 L 992 407 L 999 393 L 1007 385 L 1013 382 L 1015 382 L 1016 381 L 1020 381 L 1021 380 L 1028 380 L 1029 381 L 1032 381 L 1033 382 L 1038 383 L 1043 387 L 1044 387 L 1048 391 L 1048 392 L 1055 401 L 1058 408 L 1060 408 L 1062 406 L 1062 384 L 1061 383 L 1061 377 Z M 1308 376 L 1304 376 L 1299 380 L 1294 377 L 1292 377 L 1285 374 L 1280 374 L 1279 373 L 1267 374 L 1266 375 L 1262 375 L 1259 377 L 1257 377 L 1253 379 L 1250 382 L 1249 382 L 1244 388 L 1241 394 L 1241 397 L 1240 398 L 1240 414 L 1241 415 L 1241 418 L 1244 424 L 1247 427 L 1247 428 L 1255 435 L 1285 452 L 1293 460 L 1295 464 L 1295 468 L 1296 470 L 1295 471 L 1295 474 L 1294 475 L 1293 479 L 1286 486 L 1284 486 L 1278 489 L 1270 489 L 1269 488 L 1265 488 L 1255 482 L 1248 473 L 1246 469 L 1246 467 L 1244 464 L 1244 462 L 1243 461 L 1239 461 L 1239 471 L 1240 472 L 1240 491 L 1242 491 L 1243 490 L 1249 490 L 1252 492 L 1258 493 L 1259 494 L 1263 494 L 1264 495 L 1268 495 L 1269 496 L 1279 496 L 1280 495 L 1287 494 L 1293 491 L 1295 491 L 1301 486 L 1302 486 L 1308 480 L 1309 477 L 1311 475 L 1313 468 L 1314 467 L 1314 452 L 1313 451 L 1312 446 L 1310 444 L 1309 441 L 1301 433 L 1300 433 L 1294 428 L 1274 418 L 1272 416 L 1265 412 L 1261 408 L 1258 402 L 1258 391 L 1260 387 L 1264 383 L 1268 381 L 1271 381 L 1272 380 L 1281 380 L 1282 381 L 1285 381 L 1291 384 L 1300 394 L 1303 400 L 1304 405 L 1307 405 L 1308 404 Z M 1440 371 L 1440 373 L 1441 374 L 1447 375 L 1449 377 L 1449 390 L 1450 391 L 1452 389 L 1452 374 L 1449 372 L 1444 372 L 1443 371 Z M 1217 372 L 1215 372 L 1214 371 L 1209 371 L 1205 373 L 1202 377 L 1202 385 L 1203 387 L 1206 390 L 1208 391 L 1212 391 L 1213 392 L 1211 398 L 1202 407 L 1201 407 L 1202 410 L 1207 408 L 1213 403 L 1214 403 L 1219 397 L 1222 391 L 1222 389 L 1223 388 L 1223 380 L 1222 379 L 1222 377 Z M 111 371 L 108 371 L 107 372 L 103 372 L 101 373 L 101 388 L 102 389 L 104 387 L 104 376 L 105 375 L 108 375 L 110 374 L 112 372 Z M 139 362 L 135 362 L 125 367 L 123 367 L 122 368 L 122 370 L 125 370 L 128 368 L 135 366 L 137 364 L 138 364 Z M 1413 361 L 1413 363 L 1415 365 L 1419 367 L 1424 368 L 1427 370 L 1429 370 L 1430 369 L 1430 368 L 1427 366 L 1425 366 L 1420 363 Z M 164 346 L 161 346 L 156 350 L 152 352 L 149 355 L 148 355 L 148 358 L 150 358 L 152 356 L 156 354 L 160 350 L 161 350 Z M 1388 344 L 1388 347 L 1394 352 L 1395 352 L 1399 356 L 1401 357 L 1403 357 L 1404 356 L 1404 355 L 1402 353 L 1398 351 L 1391 345 Z M 185 323 L 182 323 L 178 328 L 178 329 L 171 336 L 171 340 L 172 340 L 181 330 L 181 329 L 184 326 Z M 1367 320 L 1369 325 L 1371 327 L 1373 331 L 1377 335 L 1377 336 L 1379 337 L 1380 336 L 1380 334 L 1374 327 L 1371 321 Z M 1349 294 L 1348 295 L 1349 297 L 1351 297 L 1352 298 L 1357 298 L 1358 299 L 1359 303 L 1361 306 L 1361 309 L 1363 311 L 1363 312 L 1365 310 L 1364 309 L 1364 307 L 1362 303 L 1362 300 L 1360 296 L 1358 296 L 1357 295 L 1351 295 Z M 209 294 L 202 294 L 201 295 L 197 295 L 196 296 L 194 296 L 194 298 L 193 299 L 193 301 L 192 302 L 192 304 L 191 305 L 191 307 L 189 310 L 188 314 L 189 315 L 191 313 L 192 309 L 194 306 L 195 301 L 197 298 L 205 297 L 206 296 L 208 296 Z M 1319 289 L 1319 291 L 1323 293 L 1329 293 L 1330 294 L 1335 294 L 1336 295 L 1338 293 L 1335 291 L 1330 291 L 1329 290 L 1325 290 L 1324 289 Z M 238 289 L 228 289 L 227 290 L 218 291 L 217 292 L 217 294 L 227 293 L 228 292 L 231 292 L 234 290 L 237 290 Z M 254 286 L 253 285 L 246 286 L 244 287 L 243 289 L 248 289 L 249 288 L 252 288 Z M 1291 284 L 1291 286 L 1292 287 L 1302 288 L 1303 289 L 1309 289 L 1310 288 L 1307 286 L 1304 286 L 1303 285 Z M 262 285 L 263 286 L 265 286 L 266 285 L 269 285 L 270 284 L 275 284 L 279 281 L 270 281 L 269 282 L 262 283 Z M 1261 278 L 1261 280 L 1265 282 L 1275 283 L 1276 284 L 1279 284 L 1281 282 L 1280 281 L 1276 281 L 1275 280 L 1271 280 L 1270 279 L 1265 279 L 1264 278 Z M 305 277 L 304 276 L 299 276 L 298 277 L 288 278 L 287 280 L 288 281 L 291 281 L 292 280 L 298 280 L 299 279 L 303 279 Z M 1232 274 L 1233 276 L 1235 276 L 1236 277 L 1247 278 L 1248 279 L 1250 279 L 1251 278 L 1251 277 L 1248 275 L 1242 275 L 1241 274 L 1237 274 L 1236 273 L 1233 273 Z M 332 272 L 331 271 L 327 271 L 326 272 L 323 272 L 322 273 L 316 273 L 314 274 L 314 276 L 320 276 L 321 275 L 330 274 Z M 1205 269 L 1205 271 L 1207 272 L 1212 272 L 1213 273 L 1217 273 L 1218 274 L 1222 274 L 1223 273 L 1222 271 L 1219 271 L 1218 270 L 1214 270 L 1213 269 Z M 341 271 L 343 272 L 344 271 L 348 271 L 349 270 L 354 270 L 355 269 L 357 269 L 358 267 L 349 267 L 348 268 L 344 268 L 343 269 L 341 269 Z M 1178 264 L 1178 266 L 1179 267 L 1182 267 L 1183 268 L 1188 268 L 1189 269 L 1195 269 L 1196 268 L 1196 267 L 1194 266 Z M 385 263 L 384 262 L 379 262 L 378 263 L 368 264 L 368 267 L 383 265 Z M 1151 259 L 1151 262 L 1154 262 L 1155 263 L 1160 263 L 1161 264 L 1168 264 L 1169 263 L 1166 261 L 1161 261 L 1160 260 L 1155 260 L 1154 259 Z M 748 258 L 748 262 L 751 267 L 752 272 L 755 275 L 759 282 L 760 281 L 758 280 L 759 279 L 756 272 L 756 268 L 755 267 L 755 265 L 753 261 L 750 258 Z M 409 258 L 397 259 L 396 260 L 393 260 L 393 262 L 395 263 L 396 262 L 400 262 L 401 261 L 406 261 L 408 260 Z M 1124 255 L 1124 257 L 1126 257 L 1127 258 L 1131 258 L 1132 259 L 1135 259 L 1136 260 L 1140 260 L 1142 258 L 1141 257 L 1137 257 L 1136 256 Z M 435 254 L 434 253 L 432 253 L 431 254 L 421 255 L 420 256 L 418 256 L 418 258 L 429 257 L 430 256 L 433 256 Z M 1096 250 L 1097 252 L 1103 253 L 1104 254 L 1110 254 L 1111 255 L 1113 255 L 1115 253 L 1111 251 L 1106 251 L 1105 250 L 1101 250 L 1100 249 L 1097 249 Z M 461 249 L 459 248 L 458 249 L 454 249 L 453 250 L 448 250 L 447 251 L 444 251 L 444 253 L 445 254 L 447 254 L 448 253 L 452 253 L 453 252 L 458 252 L 460 251 Z M 1069 244 L 1069 246 L 1072 248 L 1078 248 L 1079 249 L 1083 249 L 1084 250 L 1086 250 L 1088 248 L 1084 246 L 1079 246 L 1078 245 L 1073 245 L 1072 244 Z M 489 244 L 488 243 L 486 243 L 485 244 L 481 244 L 480 245 L 475 245 L 474 246 L 471 246 L 471 249 L 484 247 L 485 246 L 487 246 Z M 1042 239 L 1042 241 L 1044 242 L 1047 242 L 1048 243 L 1051 243 L 1052 244 L 1057 244 L 1058 245 L 1060 243 L 1056 241 L 1052 241 L 1051 240 Z M 517 239 L 516 238 L 513 238 L 512 239 L 507 239 L 506 240 L 499 241 L 499 244 L 505 243 L 506 242 L 511 242 L 512 241 L 515 241 Z M 727 236 L 722 241 L 717 250 L 717 252 L 716 253 L 716 257 L 715 258 L 715 273 L 714 274 L 715 279 L 718 283 L 720 288 L 722 290 L 725 296 L 725 299 L 726 301 L 728 303 L 728 304 L 729 303 L 732 303 L 741 311 L 749 316 L 751 316 L 755 318 L 772 318 L 773 319 L 775 319 L 776 318 L 775 316 L 775 301 L 774 300 L 773 296 L 771 294 L 769 294 L 769 297 L 767 299 L 763 291 L 759 287 L 759 286 L 753 281 L 752 281 L 746 275 L 746 270 L 745 269 L 744 264 L 742 261 L 742 259 L 740 256 L 740 254 L 738 251 L 738 244 L 739 243 L 739 240 L 733 235 L 729 235 Z M 828 235 L 826 234 L 820 234 L 814 241 L 811 247 L 811 250 L 810 252 L 799 263 L 798 268 L 801 265 L 806 262 L 808 260 L 810 256 L 817 249 L 818 249 L 820 251 L 820 255 L 813 266 L 813 276 L 812 277 L 811 283 L 809 285 L 808 284 L 809 278 L 810 277 L 810 272 L 808 271 L 804 273 L 802 275 L 802 277 L 801 278 L 801 282 L 799 286 L 796 289 L 790 292 L 787 295 L 785 299 L 785 316 L 784 317 L 784 319 L 786 319 L 787 318 L 801 318 L 802 317 L 809 316 L 815 313 L 821 307 L 822 307 L 832 295 L 840 278 L 840 276 L 842 272 L 842 265 L 841 264 L 841 260 L 840 259 L 840 255 L 839 254 L 838 249 L 836 245 L 834 243 L 833 240 Z M 806 287 L 807 286 L 808 288 L 807 289 Z M 807 285 L 808 284 L 809 286 L 808 287 Z M 1015 233 L 1015 235 L 1019 237 L 1027 238 L 1028 239 L 1032 239 L 1033 238 L 1032 236 L 1030 236 L 1029 235 L 1024 235 L 1023 234 L 1020 234 L 1019 233 Z M 544 233 L 536 233 L 532 235 L 527 235 L 526 236 L 526 238 L 531 238 L 532 237 L 535 237 L 536 236 L 540 236 Z M 987 226 L 987 228 L 991 230 L 997 231 L 998 232 L 1004 233 L 1006 231 L 1005 230 L 999 229 L 995 227 L 990 227 L 989 226 Z M 571 226 L 569 225 L 568 226 L 565 226 L 561 228 L 554 229 L 553 230 L 553 232 L 558 232 L 562 230 L 565 230 L 566 229 L 570 228 Z M 595 218 L 594 217 L 591 217 L 586 220 L 584 220 L 580 222 L 580 224 L 584 224 L 589 221 L 593 220 Z M 959 215 L 959 216 L 961 218 L 973 224 L 976 224 L 977 223 L 973 220 L 963 215 Z M 614 208 L 612 207 L 602 212 L 602 215 L 611 211 Z M 773 206 L 763 213 L 762 217 L 761 218 L 763 225 L 757 233 L 756 232 L 753 232 L 752 234 L 752 237 L 753 238 L 753 240 L 756 243 L 759 250 L 765 257 L 778 264 L 780 264 L 782 262 L 785 261 L 793 253 L 794 250 L 800 243 L 800 236 L 793 229 L 793 226 L 796 221 L 794 215 L 785 207 L 783 207 L 782 206 Z M 769 249 L 771 248 L 779 254 L 782 255 L 783 257 L 782 258 L 779 257 L 777 255 L 773 253 Z M 933 201 L 933 203 L 936 204 L 938 206 L 940 206 L 942 208 L 948 211 L 950 211 L 951 210 L 951 209 L 950 209 L 948 207 L 936 201 Z M 636 197 L 632 197 L 622 202 L 621 203 L 621 205 L 623 205 L 633 200 Z M 907 189 L 908 191 L 916 195 L 918 195 L 923 198 L 925 197 L 924 195 L 918 192 L 916 192 L 912 189 Z M 661 186 L 658 186 L 652 189 L 650 189 L 647 191 L 645 191 L 644 193 L 645 195 L 650 192 L 655 191 L 659 189 L 661 187 Z M 881 179 L 882 181 L 886 182 L 889 184 L 891 184 L 895 186 L 898 186 L 899 185 L 897 183 L 895 183 L 892 181 L 889 181 L 886 179 Z M 687 178 L 685 177 L 681 179 L 678 179 L 677 180 L 672 181 L 670 182 L 670 184 L 671 185 L 672 184 L 683 181 Z M 853 170 L 853 173 L 855 173 L 859 175 L 862 175 L 863 176 L 866 176 L 867 177 L 871 177 L 872 176 L 870 174 L 868 174 L 867 173 L 864 173 L 860 171 L 856 171 L 855 170 Z M 714 171 L 713 170 L 710 170 L 709 171 L 701 172 L 700 173 L 696 174 L 696 176 L 701 176 L 705 174 L 709 174 L 710 173 L 712 173 Z M 823 165 L 823 167 L 824 168 L 830 168 L 831 169 L 835 169 L 836 170 L 841 170 L 842 169 L 841 167 L 837 167 L 836 166 L 833 166 L 832 165 Z M 743 165 L 734 165 L 733 166 L 728 166 L 727 167 L 724 167 L 724 169 L 725 170 L 728 170 L 729 169 L 733 169 L 734 168 L 740 168 L 742 167 Z M 792 162 L 792 164 L 793 165 L 804 165 L 805 166 L 810 166 L 812 164 L 811 163 L 807 163 L 806 162 Z M 774 162 L 772 162 L 771 161 L 768 161 L 767 162 L 759 162 L 758 163 L 754 163 L 754 165 L 756 166 L 758 165 L 771 165 L 773 164 Z"/>
  <path fill="#ecae58" fill-rule="evenodd" d="M 1022 716 L 1023 717 L 1040 717 L 1044 715 L 1042 714 L 1023 714 Z M 507 715 L 508 717 L 527 717 L 528 716 L 527 714 L 515 714 L 514 715 L 512 714 L 509 714 Z M 1078 600 L 1078 602 L 1081 602 L 1087 605 L 1089 607 L 1095 610 L 1103 617 L 1105 616 L 1105 612 L 1102 606 L 1102 604 L 1103 603 L 1152 603 L 1153 604 L 1297 604 L 1300 601 L 1300 599 L 1297 597 L 1169 597 L 1168 598 L 1103 598 L 1102 597 L 1102 595 L 1105 588 L 1105 584 L 1102 585 L 1097 590 L 1096 590 L 1091 594 Z M 460 600 L 456 599 L 450 596 L 448 594 L 441 590 L 437 586 L 433 584 L 434 592 L 437 597 L 436 598 L 369 598 L 368 597 L 251 597 L 248 599 L 248 602 L 250 604 L 391 604 L 392 603 L 436 603 L 437 604 L 435 607 L 434 613 L 433 614 L 433 619 L 434 619 L 435 617 L 437 616 L 443 610 L 444 610 L 449 606 L 457 602 L 459 602 Z M 866 279 L 866 285 L 867 287 L 869 288 L 871 288 L 875 285 L 880 285 L 881 286 L 892 286 L 893 287 L 900 287 L 901 288 L 911 288 L 912 289 L 920 289 L 921 290 L 931 290 L 932 291 L 939 291 L 940 292 L 960 293 L 961 294 L 978 295 L 979 296 L 987 296 L 988 297 L 997 297 L 998 298 L 1006 298 L 1007 299 L 1014 299 L 1015 300 L 1024 300 L 1025 301 L 1032 301 L 1033 302 L 1044 302 L 1045 303 L 1049 303 L 1050 304 L 1052 304 L 1054 302 L 1054 301 L 1051 301 L 1050 300 L 1046 301 L 1045 300 L 1028 299 L 1027 298 L 1020 298 L 1019 297 L 1012 297 L 1011 296 L 1002 296 L 1001 295 L 983 294 L 982 293 L 974 293 L 973 292 L 964 292 L 963 291 L 955 291 L 954 290 L 946 290 L 945 289 L 936 289 L 935 288 L 928 288 L 927 287 L 918 287 L 917 286 L 899 285 L 898 284 L 889 284 L 888 283 L 877 283 L 875 281 L 875 280 L 872 278 L 868 278 Z M 690 281 L 687 278 L 683 278 L 678 283 L 667 283 L 666 284 L 657 284 L 656 285 L 648 285 L 647 286 L 628 287 L 627 288 L 609 289 L 608 290 L 600 290 L 599 291 L 591 291 L 590 292 L 581 292 L 580 293 L 571 293 L 570 294 L 562 294 L 561 295 L 541 296 L 540 297 L 524 298 L 523 299 L 516 299 L 515 300 L 504 300 L 503 301 L 501 301 L 501 303 L 517 302 L 518 301 L 527 301 L 528 300 L 545 299 L 546 298 L 555 298 L 556 297 L 565 297 L 566 296 L 575 296 L 576 295 L 583 295 L 584 294 L 594 294 L 595 293 L 614 292 L 615 291 L 633 290 L 634 289 L 643 289 L 644 288 L 653 288 L 654 287 L 663 287 L 664 286 L 673 286 L 674 285 L 681 285 L 683 287 L 687 287 L 690 283 Z"/>
</svg>
