<svg xmlns="http://www.w3.org/2000/svg" viewBox="0 0 300 96" fill="none" role="img" aria-label="Dawet IJs">
  <!-- Palm icoon -->
  <g transform="translate(4, 4) scale(0.92)">
    <path d="M45 10 Q37 18 40 32 Q33 24 24 24 Q32 32 32 42 Q24 36 14 36 Q24 42 28 50" stroke="#c2185b" stroke-width="3" fill="none" stroke-linecap="round" stroke-linejoin="round"/>
    <path d="M45 10 Q53 18 50 32 Q57 24 66 24 Q58 32 58 42 Q66 36 76 36 Q66 42 62 50" stroke="#c2185b" stroke-width="3" fill="none" stroke-linecap="round" stroke-linejoin="round"/>
    <circle cx="45" cy="55" r="3.5" fill="#c2185b"/>
    <path d="M45 58 L42 88 L48 88 Z" fill="#c2185b"/>
  </g>
  <!-- Wordmark — ruimere viewBox zodat niets wordt afgesneden -->
  <text x="96" y="44" font-family="'Playfair Display', Georgia, 'Times New Roman', serif" font-weight="900" font-size="34" fill="#c2185b" letter-spacing="0.04em">DAWET</text>
  <text x="96" y="78" font-family="'Playfair Display', Georgia, 'Times New Roman', serif" font-weight="900" font-size="34" fill="#c2185b" letter-spacing="0.12em">IJS</text>
</svg>
