<svg xmlns="http://www.w3.org/2000/svg" viewBox="0 0 200 200" fill="none">
  <g transform="translate(100, 180)">
    <!-- Bladpunten - waaier omhoog -->
    <path d="M0 0 Q-10 -30 -40 -60 Q-30 -50 -25 -40 Q-15 -25 -5 -10 Z" fill="#2d5a3d" opacity="0.85"/>
    <path d="M0 0 Q-5 -40 -25 -80 Q-15 -65 -10 -55 Q-5 -35 -2 -15 Z" fill="#2d5a3d" opacity="0.85"/>
    <path d="M0 0 Q0 -50 -10 -100 Q-5 -75 -3 -65 Q-1 -40 0 -20 Z" fill="#2d5a3d" opacity="0.85"/>
    <path d="M0 0 Q5 -50 0 -110 Q3 -85 4 -75 Q3 -50 2 -20 Z" fill="#2d5a3d" opacity="0.85"/>
    <path d="M0 0 Q10 -50 10 -100 Q8 -80 6 -65 Q4 -40 2 -20 Z" fill="#2d5a3d" opacity="0.85"/>
    <path d="M0 0 Q15 -40 25 -80 Q18 -65 14 -55 Q8 -35 4 -15 Z" fill="#2d5a3d" opacity="0.85"/>
    <path d="M0 0 Q20 -30 40 -60 Q30 -50 25 -40 Q15 -25 5 -10 Z" fill="#2d5a3d" opacity="0.85"/>
    <!-- Steel -->
    <path d="M0 0 L0 20" stroke="#2d5a3d" stroke-width="3" stroke-linecap="round"/>
  </g>
</svg>
