<svg xmlns="http://www.w3.org/2000/svg" viewBox="0 0 100 100" fill="none">
  <circle cx="50" cy="50" r="48" fill="#fbe8d3"/>
  <!-- Blad -->
  <path d="M50 18 Q28 32 28 56 Q28 72 50 80 Q72 72 72 56 Q72 32 50 18 Z" fill="#2d5a3d" opacity="0.15"/>
  <path d="M50 18 Q28 32 28 56 Q28 72 50 80 Q72 72 72 56 Q72 32 50 18 Z" fill="none" stroke="#2d5a3d" stroke-width="2"/>
  <!-- Midnerf -->
  <path d="M50 18 L50 80" stroke="#2d5a3d" stroke-width="1.5"/>
  <!-- Zijnerven -->
  <path d="M50 30 Q40 34 35 42 M50 44 Q40 48 33 56 M50 58 Q40 62 35 68 M50 30 Q60 34 65 42 M50 44 Q60 48 67 56 M50 58 Q60 62 65 68" stroke="#2d5a3d" stroke-width="1" fill="none"/>
</svg>
